<svg width="35" height="35" viewBox="0 0 35 35" fill="none" xmlns="http://www.w3.org/2000/svg">
<path d="M34.6588 17.9031C34.6588 16.7135 34.5623 15.5175 34.3566 14.3472H17.85V21.0861H27.3025C26.9103 23.2595 25.6499 25.1822 23.8044 26.4039V30.7765H29.4438C32.7554 27.7286 34.6588 23.2274 34.6588 17.9031Z" fill="#925ED3"/>
<path d="M17.85 35.0012C22.5698 35.0012 26.5502 33.4515 29.4502 30.7765L23.8108 26.4039C22.2419 27.4714 20.2163 28.0758 17.8564 28.0758C13.2909 28.0758 9.41989 24.9957 8.03095 20.8546H2.21155V25.3622C5.18234 31.2716 11.2332 35.0012 17.85 35.0012V35.0012Z" fill="#6E3AAE"/>
<path d="M8.02454 20.8546C7.29148 18.6812 7.29148 16.3277 8.02454 14.1542V9.64662H2.21156C-0.270522 14.5915 -0.270522 20.4173 2.21156 25.3622L8.02454 20.8546V20.8546Z" fill="#925ED3"/>
<path d="M17.85 6.92659C20.3449 6.88801 22.7563 7.82683 24.5632 9.55014L29.5595 4.55382C26.3958 1.58303 22.1968 -0.0502629 17.85 0.0011793C11.2332 0.0011793 5.18233 3.73074 2.21155 9.6466L8.02452 14.1542C9.40703 10.0067 13.2845 6.92659 17.85 6.92659V6.92659Z" fill="#A683D2"/>
</svg>
