<svg width="454" height="573" viewBox="0 0 454 573" fill="none" xmlns="http://www.w3.org/2000/svg">
<path d="M6.78544e-05 0.00809386C37.4797 -0.275842 74.9593 6.96457 109.6 21.1614C144.382 35.3582 176.183 56.5115 202.873 83.0595C229.563 109.466 250.858 141.408 265.339 176.049C279.819 210.689 287.202 248.311 287.344 285.932C287.344 323.554 279.819 361.175 265.339 395.816C250.858 430.456 229.563 462.399 202.873 488.805C176.183 515.211 144.382 536.506 109.6 550.703C74.8173 564.9 37.3377 571.998 6.10352e-05 571.856C37.4797 571.572 74.6754 564.048 109.174 549.425C143.672 535.086 175.047 513.791 201.311 487.243C227.575 460.837 248.728 429.32 262.925 394.822C277.122 360.465 284.504 323.128 284.362 285.932C284.362 248.736 277.122 211.399 262.925 177.043C248.728 142.544 227.575 111.027 201.311 84.6211C175.047 58.215 143.53 36.9199 109.174 22.4391C74.8173 7.81642 37.4797 0.292031 6.78544e-05 0.00809386Z" fill="#9245F3"/>
<path d="M6.7465e-05 16.4764C35.2082 16.1925 70.7003 23.007 103.353 36.352C136.148 49.697 166.103 69.7147 191.231 94.7011C216.36 119.687 236.519 149.643 250.148 182.437C263.777 215.09 270.734 250.582 270.875 286.074C270.875 321.566 263.777 356.916 250.148 389.711C236.519 422.364 216.502 452.461 191.231 477.447C166.103 502.434 136.006 522.309 103.353 535.796C70.5583 549.141 35.2082 555.814 6.10352e-05 555.672C35.2082 555.388 70.4163 548.289 102.785 534.519C135.296 520.89 164.967 500.872 189.67 475.886C214.372 450.899 234.248 421.228 247.735 388.717C261.222 356.348 268.036 321.14 268.036 286.074C268.036 251.008 261.222 215.942 247.735 183.431C234.39 150.92 214.372 121.249 189.67 96.2627C164.967 71.2763 135.154 51.2587 102.785 37.6297C70.4163 23.8588 35.3502 16.6184 6.7465e-05 16.4764Z" fill="#9245F3"/>
<path d="M6.70723e-05 32.8027C33.0787 32.5187 66.2992 38.9075 97.1063 51.4007C127.913 64.0358 156.023 82.7756 179.732 106.2C203.441 129.625 222.322 157.877 235.099 188.542C247.877 219.349 254.549 252.57 254.549 285.932C254.549 319.295 247.877 352.515 235.099 383.322C222.322 414.129 203.441 442.239 179.732 465.664C156.165 489.089 127.913 507.828 97.1063 520.464C66.2992 532.957 33.0787 539.345 6.10353e-05 539.062C33.0787 538.778 66.1573 532.105 96.5385 519.186C127.062 506.409 154.887 487.527 178.17 464.102C201.311 440.677 220.051 412.71 232.686 382.329C245.321 351.805 251.71 318.869 251.71 285.932C251.71 252.995 245.321 220.059 232.686 189.536C220.193 159.012 201.453 131.187 178.17 107.762C154.887 84.3372 127.062 65.4554 96.5385 52.6782C66.1573 39.7591 33.2206 33.0866 6.70723e-05 32.8027Z" fill="#9245F3"/>
<path d="M6.6683e-05 49.129C30.9491 48.845 62.0402 54.8078 90.8597 66.4492C119.679 78.2326 146.085 95.6946 168.09 117.7C190.237 139.563 207.842 165.969 219.909 194.789C231.976 223.608 238.081 254.699 238.081 285.932C238.081 317.165 231.834 348.256 219.909 377.076C207.984 405.895 190.237 432.301 168.09 454.164C145.943 476.028 119.537 493.632 90.8597 505.415C62.0402 517.198 30.9491 523.019 6.10353e-05 522.735C30.9491 522.451 61.8982 516.205 90.2918 504.137C118.827 492.212 144.808 474.608 166.529 452.603C188.25 430.74 205.712 404.618 217.495 376.082C229.279 347.546 235.241 316.739 235.241 285.932C235.241 255.125 229.279 224.318 217.495 195.782C205.712 167.247 188.25 141.266 166.529 119.261C144.808 97.3982 118.686 79.7943 90.2919 67.727C61.8982 55.6597 30.9491 49.4129 6.6683e-05 49.129Z" fill="#9245F3"/>
<path d="M6.62902e-05 65.4553C28.8196 65.1714 57.7811 70.7082 84.6131 81.4978C111.445 92.4293 136.006 108.756 156.591 129.199C177.176 149.643 193.645 174.203 204.86 200.893C216.076 227.725 221.754 256.687 221.896 285.79C221.896 314.752 216.076 343.855 204.86 370.687C193.645 397.519 177.318 422.08 156.591 442.381C136.006 462.824 111.445 479.151 84.6131 490.082C57.7811 501.014 28.8196 506.409 6.10353e-05 506.125C28.8196 505.841 57.6392 500.02 84.0453 488.663C110.593 477.589 134.87 461.121 155.029 440.677C175.189 420.234 191.515 395.958 202.447 369.409C213.378 342.861 219.057 314.184 218.915 285.506C218.915 256.828 213.378 228.151 202.447 201.603C191.515 175.055 175.189 150.778 155.029 130.335C134.87 109.891 110.593 93.565 84.0453 82.3496C57.6392 71.7019 28.8196 65.7392 6.62902e-05 65.4553Z" fill="#9245F3"/>
<path d="M6.59007e-05 81.9239C26.6901 81.6399 53.5221 86.7508 78.3665 96.8305C103.211 106.91 125.926 122.101 145.092 140.983C164.257 159.864 179.448 182.579 189.812 207.424C200.175 232.268 205.428 259.1 205.57 285.932C205.57 312.764 200.175 339.738 189.812 364.441C179.448 389.285 164.257 412 145.092 430.882C126.068 449.763 103.211 464.812 78.3665 475.034C53.5221 485.114 26.6901 490.082 6.10352e-05 489.94C26.6901 489.656 53.3801 484.262 77.7987 473.756C102.359 463.393 124.79 448.202 143.53 429.32C162.128 410.438 177.318 388.007 187.398 363.447C197.478 338.886 202.731 312.338 202.731 285.932C202.731 259.384 197.62 232.836 187.398 208.418C177.318 183.857 162.27 161.426 143.53 142.544C124.79 123.662 102.359 108.472 77.7987 98.1081C53.3801 87.6025 26.6901 82.0658 6.59007e-05 81.9239Z" fill="#9245F3"/>
<path d="M6.55115e-05 98.2502C24.5606 97.9662 49.2631 102.651 72.1199 111.879C94.9768 121.107 115.988 135.02 133.45 152.482C151.054 169.802 165.109 190.813 174.621 213.67C184.133 236.527 189.102 261.23 189.102 285.932C189.102 310.635 184.133 335.479 174.621 358.194C165.109 381.051 151.054 401.92 133.45 419.382C115.846 436.702 94.9768 450.615 72.1199 459.985C49.263 469.213 24.5606 473.898 6.10353e-05 473.614C24.5606 473.33 48.9791 468.361 71.5521 458.707C94.125 449.196 114.71 435.283 131.889 417.821C149.067 400.501 162.838 379.773 172.208 357.2C181.577 334.627 186.262 310.209 186.262 285.932C186.262 261.514 181.577 237.095 172.208 214.664C162.98 192.091 149.067 171.506 131.889 154.044C114.71 136.723 94.125 122.669 71.5521 113.157C48.9791 103.503 24.5606 98.5341 6.55115e-05 98.2502Z" fill="#9245F3"/>
<path d="M6.51187e-05 114.577C22.431 114.293 45.004 118.552 65.8733 126.928C86.7426 135.446 105.908 148.081 121.951 163.981C137.993 179.882 150.77 198.906 159.572 219.775C168.232 240.644 172.775 263.217 172.775 285.79C172.775 308.363 168.232 330.936 159.572 351.805C150.912 372.675 138.135 391.84 121.951 407.599C105.908 423.499 86.7426 436.135 65.8733 444.653C45.004 453.029 22.431 457.288 6.10353e-05 457.004C22.431 456.72 44.7201 452.177 65.3055 443.375C85.8908 434.715 104.631 421.938 120.389 406.037C136.006 390.137 148.641 371.397 157.159 350.812C165.677 330.226 169.936 307.937 169.936 285.79C169.936 263.501 165.677 241.354 157.159 220.769C148.641 200.183 136.006 181.302 120.389 165.543C104.773 149.643 85.8908 137.008 65.3055 128.206C44.7201 119.403 22.431 114.861 6.51187e-05 114.577Z" fill="#9245F3"/>
<path d="M6.47296e-05 130.903C20.3015 130.619 40.603 134.452 59.4848 141.976C78.3665 149.643 95.6867 161.142 110.309 175.481C124.932 189.82 136.432 207.14 144.382 226.022C152.332 244.903 156.307 265.347 156.449 285.79C156.449 306.234 152.332 326.677 144.382 345.559C136.574 364.441 124.932 381.761 110.309 396.1C95.8286 410.438 78.3665 421.938 59.4847 429.604C40.603 437.27 20.1596 441.104 6.10355e-05 440.678C20.3015 440.394 40.461 436.277 59.0588 428.326C77.6567 420.518 94.6929 408.877 108.748 394.538C122.803 380.199 134.302 363.163 141.968 344.565C149.635 325.967 153.61 305.808 153.468 285.79C153.468 265.631 149.635 245.613 141.968 227.015C134.302 208.418 122.945 191.381 108.748 177.043C94.5509 162.704 77.6567 151.204 59.0588 143.254C40.461 135.446 20.3015 131.329 6.47296e-05 130.903Z" fill="#9245F3"/>
<path d="M6.43434e-05 147.371C18.172 147.087 36.3439 150.495 53.2382 157.309C70.1324 164.123 85.6069 174.345 98.668 187.264C111.729 200.041 122.093 215.658 129.191 232.552C136.29 249.446 139.839 267.76 139.981 286.074C139.981 304.388 136.29 322.702 129.191 339.596C122.093 356.49 111.729 371.965 98.668 384.884C85.6069 397.661 70.1324 408.025 53.2382 414.839C36.3439 421.654 18.03 425.061 6.10354e-05 424.777C36.3439 424.351 71.978 409.161 97.2483 383.464C109.883 370.687 120.105 355.497 126.92 338.744C133.734 322.134 137.283 304.104 137.283 286.216C137.283 268.328 133.876 250.298 126.92 233.688C120.105 217.078 109.883 201.887 97.2483 188.968C71.978 162.846 36.3439 147.797 6.43434e-05 147.371Z" fill="#9245F3"/>
<path d="M6.39506e-05 163.698C16.0425 163.414 32.0849 166.395 46.9915 172.358C61.8982 178.32 75.6691 187.406 87.1686 198.764C98.668 210.121 107.896 223.75 114.143 238.657C120.389 253.563 123.654 269.748 123.654 285.932C123.654 302.117 120.389 318.301 114.143 333.208C107.896 348.114 98.8099 361.885 87.1686 373.101C75.6691 384.458 61.8982 393.402 46.9915 399.507C32.0849 405.469 15.9005 408.451 6.10354e-05 408.167C32.0849 407.741 63.4599 394.254 85.6069 371.539C96.6804 360.182 105.624 346.836 111.729 332.214C117.834 317.591 120.815 301.691 120.815 285.932C120.815 270.174 117.834 254.273 111.729 239.651C105.766 225.028 96.6804 211.683 85.6069 200.325C63.4599 177.468 32.0849 164.123 6.39506e-05 163.698Z" fill="#9245F3"/>
<path d="M6.35613e-05 180.024C13.913 179.74 27.8258 182.295 40.7449 187.406C53.6641 192.659 65.5894 200.467 75.5272 210.263C85.6069 220.059 93.4152 231.984 98.9519 244.903C104.347 257.822 107.186 271.877 107.186 285.932C107.186 299.987 104.347 314.042 98.9519 326.961C93.5571 339.88 85.6069 351.805 75.5272 361.601C65.5894 371.397 53.6641 379.205 40.7449 384.458C27.8258 389.569 13.771 392.124 6.10354e-05 391.84C27.6839 391.415 54.9418 379.773 74.1075 360.039C83.6194 350.244 91.4276 338.602 96.6804 325.967C101.933 313.332 104.489 299.703 104.489 285.932C104.489 272.303 101.933 258.532 96.6804 245.897C91.5696 233.262 83.7613 221.621 74.1075 211.825C54.9418 192.091 27.8258 180.45 6.35613e-05 180.024Z" fill="#9245F3"/>
<path d="M6.31689e-05 196.35C11.7834 196.066 23.5668 198.196 34.4983 202.455C45.4299 206.856 55.5096 213.386 64.0277 221.763C72.5458 229.997 79.2183 240.076 83.9033 251.008C88.4463 261.94 90.8597 273.865 90.8597 285.79C90.8597 297.716 88.4463 309.499 83.9033 320.572C79.3603 331.504 72.5458 341.584 64.0277 349.818C55.5096 358.052 45.4299 364.724 34.4983 369.125C23.5668 373.385 11.6415 375.656 6.10358e-05 375.23C23.4248 374.804 46.2817 364.867 62.4661 348.256C70.5583 340.022 77.0888 330.226 81.4898 319.579C85.8908 308.931 88.1623 297.432 88.0204 285.79C88.0204 274.291 85.8908 262.791 81.4898 252.002C77.0888 241.354 70.5583 231.558 62.4661 223.324C46.2817 206.714 23.4248 196.918 6.31689e-05 196.35Z" fill="#9245F3"/>
<path d="M6.27826e-05 212.819C9.51193 212.535 19.1658 214.238 28.2517 217.787C37.1957 221.337 45.5719 226.731 52.5283 233.546C66.5832 247.033 74.5334 266.482 74.5334 286.074C74.5334 305.524 66.4412 324.973 52.5283 338.602C45.5719 345.417 37.3377 350.812 28.2517 354.361C19.3077 357.91 9.6539 359.614 6.10355e-05 359.33C19.1658 358.762 37.7636 350.67 50.9667 337.183C57.4972 330.368 62.892 322.418 66.4412 313.758C69.9904 305.098 71.836 295.728 71.836 286.216C71.836 276.846 69.9904 267.476 66.4412 258.674C62.892 250.014 57.4972 242.064 50.9667 235.25C37.7636 221.337 19.1658 213.244 6.27826e-05 212.819Z" fill="#9245F3"/>
<path d="M6.23934e-05 229.145C7.38241 228.861 14.9067 230.139 22.0051 232.836C28.9616 235.533 35.4921 239.65 40.8869 245.045C46.2817 250.298 50.6827 256.687 53.6641 263.785C56.6454 270.742 58.0651 278.408 58.207 286.074C58.207 293.74 56.6454 301.265 53.6641 308.363C50.6827 315.32 46.4237 321.708 40.8869 327.103C35.4921 332.356 28.9616 336.473 22.0051 339.312C15.0487 342.01 7.52438 343.287 6.10356e-05 343.003C14.9067 342.435 29.2455 336.047 39.3253 325.541C49.547 315.036 55.3677 300.697 55.3677 286.216C55.3677 271.735 49.547 257.255 39.3253 246.891C29.2455 236.101 14.9067 229.571 6.23934e-05 229.145Z" fill="#9245F3"/>
<path d="M6.19974e-05 245.471C5.25289 245.187 10.6477 246.039 15.7585 247.885C20.7274 249.73 25.4124 252.712 29.3875 256.545C33.3626 260.236 36.4859 264.921 38.6154 269.89C40.7449 274.859 41.8807 280.395 41.8807 285.79C41.8807 291.327 40.7449 296.722 38.6154 301.691C36.4859 306.66 33.3626 311.345 29.3875 315.036C25.4124 318.869 20.8694 321.708 15.7585 323.696C10.6477 325.541 5.39485 326.393 6.10358e-05 326.109C10.6477 325.541 20.5854 320.856 27.8258 313.474C34.9242 306.092 39.0413 295.87 39.0413 285.648C39.0413 275.427 34.9242 265.347 27.8258 257.822C20.7274 250.724 10.6477 246.039 6.19974e-05 245.471Z" fill="#9245F3"/>
<path d="M6.16084e-05 261.798C6.24666 261.23 12.9192 263.501 17.7461 268.044C20.1596 270.316 22.0051 273.013 23.4248 276.136C24.7025 279.118 25.4124 282.525 25.4124 285.79C25.4124 289.056 24.7025 292.463 23.4248 295.444C22.1471 298.425 20.1596 301.265 17.7461 303.536C12.9192 308.079 6.24666 310.351 6.10362e-05 309.783C6.24666 309.215 12.0674 306.376 16.1844 301.975C20.3015 297.574 22.573 291.753 22.573 285.79C22.573 279.828 20.3015 274.007 16.1844 269.606C12.0674 265.205 6.24666 262.365 6.16084e-05 261.798Z" fill="#9245F3"/>
<path d="M456.286 572.992C418.806 573.276 381.327 566.036 346.687 551.839C311.904 537.642 280.103 516.489 253.413 489.941C226.723 463.534 205.428 431.592 190.947 396.951C176.467 362.311 169.084 324.69 168.942 287.068C168.942 249.446 176.467 211.825 190.947 177.185C205.428 142.544 226.723 110.601 253.413 84.1954C280.103 57.7893 311.904 36.4941 346.687 22.2973C381.469 8.10046 418.948 1.00202 456.286 1.14398C418.806 1.42792 381.611 8.95213 347.112 23.5749C312.614 37.9137 281.239 59.209 254.975 85.757C228.711 112.163 207.558 143.68 193.361 178.178C179.164 212.535 171.782 249.872 171.924 287.068C171.924 324.264 179.164 361.601 193.361 395.958C207.558 430.456 228.711 461.973 254.975 488.379C281.239 514.785 312.756 536.08 347.112 550.561C381.611 565.184 418.806 572.708 456.286 572.992Z" fill="#F2179B"/>
<path d="M456.286 556.666C421.078 556.95 385.586 550.135 352.933 536.79C320.138 523.445 290.183 503.428 265.055 478.441C239.926 453.455 219.767 423.5 206.138 390.705C192.509 358.052 185.553 322.56 185.411 287.068C185.411 251.576 192.509 216.226 206.138 183.431C219.767 150.779 239.784 120.681 265.055 95.6948C290.183 70.7084 320.28 50.8329 352.933 37.3459C385.728 24.0009 421.078 17.3284 456.286 17.4703C421.078 17.7543 385.87 24.8527 353.501 38.6236C320.99 52.2526 291.319 72.27 266.616 97.2564C241.914 122.243 222.038 151.914 208.551 184.425C195.064 216.794 188.25 252.002 188.25 287.068C188.25 322.134 195.064 357.2 208.551 389.711C221.896 422.222 241.914 451.893 266.616 476.88C291.319 501.866 321.132 521.884 353.501 535.513C385.87 549.283 420.936 556.382 456.286 556.666Z" fill="#F2179B"/>
<path d="M456.286 540.197C423.207 540.481 389.987 534.093 359.18 521.6C328.373 508.964 300.263 490.225 276.554 466.8C252.845 443.375 233.964 415.123 221.187 384.458C208.409 353.651 201.737 320.431 201.737 287.068C201.737 253.706 208.409 220.485 221.187 189.678C233.964 158.871 252.845 130.761 276.554 107.336C300.121 83.9114 328.373 65.1716 359.18 52.5364C389.987 40.0432 423.207 33.6547 456.286 33.9386C423.207 34.2226 390.129 40.8951 359.748 53.8142C329.224 66.5913 301.399 85.4732 278.116 108.898C254.975 132.323 236.235 160.29 223.6 190.672C210.965 221.195 204.576 254.131 204.576 287.068C204.576 320.005 210.965 352.941 223.6 383.464C236.093 413.988 254.833 441.813 278.116 465.238C301.399 488.663 329.224 507.545 359.748 520.322C390.129 533.241 423.207 540.055 456.286 540.197Z" fill="#F2179B"/>
<path d="M456.286 523.871C425.337 524.155 394.246 518.192 365.426 506.551C336.607 494.768 310.201 477.306 288.196 455.301C266.049 433.437 248.444 407.031 236.377 378.212C224.31 349.392 218.205 318.301 218.205 287.068C218.205 255.835 224.452 224.744 236.377 195.924C248.302 167.105 266.049 140.699 288.196 118.836C310.343 96.9727 336.749 79.3685 365.426 67.5851C394.246 55.8017 425.337 49.9811 456.286 50.2651C425.337 50.549 394.388 56.7956 365.994 68.8629C337.459 80.7882 311.478 98.3923 289.757 120.397C268.036 142.261 250.574 168.383 238.791 196.918C227.007 225.454 221.045 256.261 221.045 287.068C221.045 317.875 227.007 348.682 238.791 377.218C250.574 405.754 268.036 431.734 289.757 453.739C311.478 475.602 337.601 493.206 365.994 505.273C394.388 517.341 425.337 523.729 456.286 523.871Z" fill="#F2179B"/>
<path d="M456.286 507.545C427.466 507.829 398.505 502.292 371.673 491.502C344.841 480.571 320.28 464.244 299.695 443.801C279.11 423.358 262.641 398.797 251.426 372.107C240.21 345.275 234.532 316.314 234.39 287.21C234.39 258.249 240.21 229.145 251.426 202.313C262.641 175.481 278.968 150.92 299.695 130.619C320.28 110.176 344.841 93.8493 371.673 82.9177C398.505 71.9862 427.466 66.5913 456.286 66.8752C427.466 67.1592 398.647 72.9799 372.241 84.3374C345.693 95.4109 321.416 111.879 301.257 132.323C281.097 152.766 264.771 177.043 253.839 203.591C242.908 230.139 237.229 258.816 237.371 287.494C237.371 316.172 242.908 344.849 253.839 371.397C264.771 397.945 281.097 422.222 301.257 442.665C321.416 463.109 345.693 479.435 372.241 490.65C398.647 501.44 427.466 507.261 456.286 507.545Z" fill="#F2179B"/>
<path d="M456.286 491.218C429.596 491.502 402.764 486.391 377.919 476.312C353.075 466.232 330.36 451.041 311.194 432.16C292.029 413.278 276.838 390.563 266.474 365.718C256.111 340.874 250.858 314.042 250.716 287.21C250.716 260.378 256.111 233.404 266.474 208.702C276.838 183.857 292.029 161.142 311.194 142.261C330.218 123.379 353.075 108.33 377.919 98.1083C402.764 88.0285 429.596 83.0597 456.286 83.2016C429.596 83.4856 402.906 88.8804 378.487 99.386C353.927 109.75 331.496 124.94 312.756 143.822C294.158 162.704 278.968 185.135 268.888 209.695C258.808 234.256 253.555 260.804 253.555 287.21C253.555 313.758 258.666 340.306 268.888 364.725C278.968 389.285 294.016 411.716 312.756 430.598C331.496 449.48 353.927 464.67 378.487 475.034C402.906 485.398 429.596 490.934 456.286 491.218Z" fill="#F2179B"/>
<path d="M456.286 474.892C431.725 475.176 407.023 470.491 384.166 461.263C361.309 452.035 340.298 438.122 322.836 420.66C305.232 403.34 291.177 382.329 281.665 359.472C272.153 336.615 267.184 311.912 267.184 287.21C267.184 262.508 272.153 237.663 281.665 214.948C291.177 192.091 305.232 171.222 322.836 153.76C340.44 136.44 361.309 122.527 384.166 113.157C407.023 103.929 431.725 99.2439 456.286 99.5279C431.725 99.8118 407.307 104.781 384.734 114.435C362.161 123.946 341.576 137.859 324.397 155.321C307.219 172.642 293.448 193.369 284.078 215.942C274.709 238.515 270.024 262.933 270.024 287.21C270.024 311.629 274.709 336.047 284.078 358.478C293.306 381.051 307.219 401.636 324.397 419.099C341.576 436.419 362.161 450.473 384.734 459.985C407.307 469.497 431.725 474.466 456.286 474.892Z" fill="#F2179B"/>
<path d="M456.286 458.424C433.855 458.708 411.282 454.449 390.413 446.073C369.543 437.554 350.378 424.919 334.335 409.019C318.293 393.118 305.516 374.095 296.714 353.225C288.054 332.356 283.511 309.783 283.511 287.21C283.511 264.637 288.054 242.064 296.714 221.195C305.374 200.326 318.151 181.16 334.335 165.401C350.378 149.501 369.543 136.866 390.413 128.348C411.282 119.971 433.855 115.712 456.286 115.996C433.855 116.28 411.566 120.823 390.981 129.625C370.395 138.285 351.655 151.062 335.897 166.963C320.28 182.863 307.645 201.603 299.127 222.189C290.609 242.774 286.35 265.063 286.35 287.21C286.35 309.499 290.609 331.646 299.127 352.231C307.645 372.817 320.28 391.699 335.897 407.457C351.513 423.358 370.395 435.993 390.981 444.795C411.566 453.597 433.855 458.14 456.286 458.424Z" fill="#F2179B"/>
<path d="M456.286 442.097C435.985 442.381 415.683 438.548 396.801 431.024C377.919 423.358 360.599 411.858 345.977 397.519C331.354 383.181 319.854 365.86 311.904 346.979C303.954 328.097 299.979 307.653 299.837 287.21C299.837 266.767 303.954 246.323 311.904 227.441C319.713 208.56 331.354 191.239 345.977 176.901C360.457 162.562 377.919 151.062 396.801 143.396C415.683 135.73 436.127 131.897 456.286 132.323C435.985 132.607 415.825 136.724 397.227 144.674C378.629 152.482 361.593 164.124 347.538 178.462C333.483 192.801 321.984 209.837 314.318 228.435C306.651 247.033 302.676 267.193 302.818 287.21C302.818 307.37 306.651 327.387 314.318 345.985C321.984 364.583 333.341 381.619 347.538 395.958C361.735 410.297 378.629 421.796 397.227 429.746C415.825 437.696 435.985 441.813 456.286 442.097Z" fill="#F2179B"/>
<path d="M456.286 425.771C438.114 426.055 419.942 422.648 403.048 415.833C386.154 409.019 370.679 398.797 357.618 385.878C344.557 373.101 334.193 357.484 327.095 340.59C319.996 323.696 316.447 305.382 316.305 287.068C316.305 268.754 319.996 250.44 327.095 233.546C334.193 216.652 344.557 201.177 357.618 188.258C370.679 175.481 386.154 165.117 403.048 158.303C419.942 151.488 438.256 148.081 456.286 148.365C419.942 148.791 384.308 163.982 359.038 189.678C346.403 202.455 336.181 217.646 329.366 234.398C322.552 251.008 319.003 269.038 319.003 286.926C319.003 304.814 322.41 322.844 329.366 339.454C336.181 356.065 346.403 371.255 359.038 384.174C384.308 410.155 419.942 425.345 456.286 425.771Z" fill="#F2179B"/>
<path d="M456.286 409.445C440.244 409.729 424.201 406.747 409.295 400.785C394.388 394.822 380.617 385.736 369.117 374.379C357.618 363.021 348.39 349.392 342.144 334.485C335.897 319.579 332.632 303.394 332.632 287.21C332.632 271.026 335.897 254.841 342.144 239.935C348.39 225.028 357.476 211.257 369.117 200.042C380.617 188.684 394.388 179.74 409.295 173.635C424.201 167.673 440.386 164.692 456.286 164.975C424.201 165.401 392.826 178.888 370.679 201.603C359.606 212.961 350.662 226.306 344.557 240.928C338.452 255.551 335.471 271.452 335.471 287.21C335.471 302.969 338.452 318.869 344.557 333.492C350.52 348.114 359.606 361.459 370.679 372.817C392.826 395.532 424.201 408.877 456.286 409.445Z" fill="#F2179B"/>
<path d="M456.286 392.976C442.373 393.26 428.46 390.705 415.541 385.594C402.622 380.341 390.697 372.533 380.759 362.737C370.679 352.941 362.871 341.016 357.334 328.097C351.939 315.178 349.1 301.123 349.1 287.068C349.1 273.013 351.939 258.958 357.334 246.039C362.729 233.12 370.679 221.195 380.759 211.399C390.697 201.603 402.622 193.795 415.541 188.542C428.46 183.431 442.515 180.876 456.286 181.16C428.602 181.586 401.344 193.227 382.179 212.961C372.667 222.756 364.858 234.398 359.606 247.033C354.353 259.668 351.797 273.297 351.797 287.068C351.797 300.697 354.353 314.468 359.606 327.103C364.716 339.738 372.525 351.38 382.179 361.175C401.344 380.909 428.602 392.55 456.286 392.976Z" fill="#F2179B"/>
<path d="M456.286 376.65C444.503 376.934 432.719 374.804 421.788 370.545C410.856 366.144 400.776 359.614 392.258 351.238C383.74 343.004 377.068 332.924 372.383 321.992C367.84 311.061 365.426 299.135 365.426 287.21C365.426 275.285 367.84 263.501 372.383 252.428C376.926 241.496 383.74 231.417 392.258 223.182C400.776 214.948 410.856 208.276 421.788 203.875C432.719 199.616 444.645 197.344 456.286 197.77C432.861 198.196 410.004 208.134 393.82 224.744C385.728 232.978 379.197 242.774 374.796 253.422C370.395 264.069 368.124 275.569 368.266 287.21C368.266 298.71 370.395 310.209 374.796 320.998C379.197 331.646 385.728 341.442 393.82 349.676C410.004 366.286 432.861 376.224 456.286 376.65Z" fill="#F2179B"/>
<path d="M456.286 360.324C446.774 360.608 437.12 358.904 428.034 355.355C419.09 351.806 410.714 346.411 403.758 339.596C389.703 326.109 381.753 306.66 381.753 287.068C381.753 267.618 389.845 248.169 403.758 234.54C410.714 227.725 418.948 222.33 428.034 218.781C436.978 215.232 446.632 213.528 456.286 213.812C437.12 214.38 418.522 222.473 405.319 235.96C398.789 242.774 393.394 250.724 389.845 259.384C386.296 268.044 384.45 277.414 384.45 286.926C384.45 296.296 386.296 305.666 389.845 314.468C393.394 323.128 398.789 331.078 405.319 337.893C418.522 351.664 437.12 359.756 456.286 360.324Z" fill="#F2179B"/>
<path d="M456.286 343.997C448.904 344.281 441.379 343.004 434.281 340.306C427.325 337.609 420.794 333.492 415.399 328.097C410.004 322.844 405.603 316.455 402.622 309.357C399.641 302.401 398.221 294.734 398.079 287.068C398.079 279.402 399.641 271.877 402.622 264.779C405.603 257.823 409.862 251.434 415.399 246.039C420.794 240.786 427.325 236.669 434.281 233.83C441.237 231.133 448.762 229.855 456.286 230.139C441.379 230.707 427.041 237.095 416.961 247.601C406.739 258.107 400.918 272.445 400.918 286.926C400.918 301.407 406.739 315.888 416.961 326.251C427.041 337.041 441.379 343.429 456.286 343.997Z" fill="#F2179B"/>
<path d="M456.286 327.529C451.033 327.813 445.638 326.961 440.528 325.116C435.559 323.27 430.874 320.289 426.899 316.456C422.923 312.764 419.8 308.079 417.671 303.11C415.541 298.142 414.405 292.605 414.405 287.21C414.405 281.673 415.541 276.278 417.671 271.31C419.8 266.341 422.923 261.656 426.899 257.965C430.874 254.132 435.417 251.292 440.528 249.304C445.638 247.459 450.891 246.607 456.286 246.891C445.638 247.459 435.701 252.144 428.46 259.526C421.362 266.909 417.245 277.13 417.245 287.352C417.245 297.574 421.362 307.653 428.46 315.178C435.701 322.418 445.638 327.103 456.286 327.529Z" fill="#F2179B"/>
<path d="M456.286 311.203C450.039 311.771 443.367 309.499 438.54 304.956C436.127 302.685 434.281 299.987 432.861 296.864C431.584 293.882 430.874 290.475 430.874 287.21C430.874 283.945 431.584 280.538 432.861 277.556C434.139 274.575 436.127 271.736 438.54 269.464C443.367 264.921 450.039 262.65 456.286 263.217C450.039 263.785 444.219 266.625 440.102 271.026C435.985 275.427 433.713 281.247 433.713 287.21C433.713 293.173 435.985 298.993 440.102 303.395C444.219 307.796 450.039 310.635 456.286 311.203Z" fill="#F2179B"/>
</svg>
