<svg width="35" height="35" viewBox="0 0 35 35" fill="none" xmlns="http://www.w3.org/2000/svg">
<path d="M32.4163 0H2.58368C1.89845 0 1.24128 0.272209 0.756743 0.756743C0.272209 1.24128 0 1.89845 0 2.58368V32.4163C0 33.1016 0.272209 33.7587 0.756743 34.2433C1.24128 34.7278 1.89845 35 2.58368 35H32.4163C33.1016 35 33.7587 34.7278 34.2433 34.2433C34.7278 33.7587 35 33.1016 35 32.4163V2.58368C35 1.89845 34.7278 1.24128 34.2433 0.756743C33.7587 0.272209 33.1016 0 32.4163 0ZM10.4319 29.8156H5.16979V13.1007H10.4319V29.8156ZM7.79722 10.7844C7.20032 10.781 6.61779 10.6009 6.12315 10.2668C5.62851 9.93268 5.24393 9.45952 5.01795 8.90705C4.79196 8.35457 4.73469 7.74753 4.85338 7.16254C4.97206 6.57755 5.26138 6.04082 5.68481 5.6201C6.10824 5.19938 6.64681 4.91351 7.23256 4.79859C7.8183 4.68366 8.42496 4.74482 8.97597 4.97435C9.52699 5.20388 9.99766 5.59149 10.3286 6.08827C10.6595 6.58504 10.8359 7.16872 10.8354 7.76563C10.841 8.16526 10.7662 8.56193 10.6152 8.93201C10.4643 9.30208 10.2404 9.63798 9.95687 9.91968C9.67336 10.2014 9.33603 10.4231 8.96499 10.5717C8.59396 10.7202 8.19681 10.7926 7.79722 10.7844ZM29.8278 29.8302H24.5681V20.6986C24.5681 18.0056 23.4233 17.1743 21.9455 17.1743C20.3851 17.1743 18.8538 18.3507 18.8538 20.7667V29.8302H13.5917V13.1128H18.6521V15.4292H18.7201C19.2281 14.401 21.0073 12.6438 23.7222 12.6438C26.6583 12.6438 29.8302 14.3865 29.8302 19.4906L29.8278 29.8302Z" fill="#A683D2"/>
</svg>
